<svg id="Layer_1" data-name="Layer 1" xmlns="http://www.w3.org/2000/svg" viewBox="0 0 23 23"><defs><style>.cls-1{fill:#fff;}</style></defs><path class="cls-1" d="M23.5.5H.5v23h0V.5h23Z" transform="translate(-0.5 -0.5)"/><path class="cls-1" d="M12,23.3A11.25,11.25,0,1,1,23.2,12.1,11.2,11.2,0,0,1,12,23.3ZM12,1.9a10.15,10.15,0,0,0,0,20.3A10.15,10.15,0,0,0,12,1.9Z" transform="translate(-0.5 -0.5)"/><path class="cls-1" d="M12.6,8c.1-.3.1-.6.2-.8a.1.1,0,0,1,.1-.1,8.264,8.264,0,0,1,2.2-.8,8.854,8.854,0,0,1,2.3,0,3.476,3.476,0,0,1,2.2,1.2,2.257,2.257,0,0,1-.1,2.8,3.412,3.412,0,0,1-1.8,1.1,7.345,7.345,0,0,1-3.6-.2,7.973,7.973,0,0,1-1.6-.8L10.4,8.9c-.4-.3-.8-.5-1.1-.7a4.714,4.714,0,0,0-1.5-.6,2.556,2.556,0,0,0-1.5,0,1.02,1.02,0,0,0-.8.5,1.168,1.168,0,0,0,.2,1.7,4.179,4.179,0,0,0,1,.4,4.011,4.011,0,0,0,1.9-.1,5.359,5.359,0,0,0,1.1-.5.1.1,0,0,0,.1-.1v.2c-.1.3-.1.5-.2.8l-.1.1a3.805,3.805,0,0,1-1.5.5,3.788,3.788,0,0,1-1.5,0,2.41,2.41,0,0,1-1.8-.7,2.152,2.152,0,0,1,0-3.2,2.966,2.966,0,0,1,1.5-.7,4.541,4.541,0,0,1,3.2.6c.6.3,1.2.7,1.7,1,.3.2.6.5.9.7A11.252,11.252,0,0,0,14.1,10a4.993,4.993,0,0,0,2.7.2,3.552,3.552,0,0,0,.9-.4A1.193,1.193,0,0,0,17.8,8a2.384,2.384,0,0,0-1.1-.6,5.345,5.345,0,0,0-3.3.2c-.1.1-.4.2-.7.4Z" transform="translate(-0.5 -0.5)"/><path class="cls-1" d="M10.4,9.6a8.65,8.65,0,0,1,1,.7s.1.1,0,.1c-.1.6-.3,1.2-.4,1.7l-.6,2.7c-.2.7-.3,1.4-.5,2.2-.1.3-.1.6-.2,1-.1.5.2.8.7.9h.3a9.15,9.15,0,0,0,1.7-.1c.2,0,.3.1.2.2-.1.3-.1.5-.2.8,0,.1-.1.1-.2.1-.5,0-.9.1-1.4.1a4.869,4.869,0,0,1-1.2-.1,1.609,1.609,0,0,1-1.2-1.3,3.788,3.788,0,0,1,0-1.5L9,14.4c.2-1,.4-1.9.6-2.9.1-.6.3-1.2.4-1.9Z" transform="translate(-0.5 -0.5)"/><path class="cls-1" d="M12,8c-.1-.1-.2-.1-.2-.2-.3-.2-.5-.3-.8-.5a.1.1,0,0,1-.1-.1c.2-1,.5-2.1.7-3.1a.215.215,0,0,1,.2-.2h.9c.2,0,.2.1.2.3-.1.3-.1.5-.2.8-.2,1-.4,1.9-.6,2.9A.1.1,0,0,0,12,8Z" transform="translate(-0.5 -0.5)"/></svg>